<?xml version="1.0" encoding="iso-8859-1"?>
<!-- Uploaded to: SVG Repo, www.svgrepo.com, Generator: SVG Repo Mixer Tools -->
<svg height="800px" width="800px" version="1.1" id="Layer_1" xmlns="http://www.w3.org/2000/svg" xmlns:xlink="http://www.w3.org/1999/xlink" 
	 viewBox="0 0 512 512" xml:space="preserve">
<g transform="translate(1 1)">
	<polygon style="fill:#FFFFFF;" points="493.933,199.533 16.067,199.533 33.133,165.4 476.867,165.4 	"/>
	<path style="fill:#0096E6;" d="M507.587,208.067H2.413l25.6-51.2h453.973L507.587,208.067z M29.72,191h450.56l-8.533-17.067H38.253
		L29.72,191z"/>
	<polygon style="fill:#FFFFFF;" points="417.133,165.4 255,71.533 92.867,165.4 	"/>
	<path style="fill:#0096E6;" d="M448.707,173.933H61.293L255,61.293L448.707,173.933z M124.44,156.867h261.12L255,81.773
		L124.44,156.867z"/>
	<path style="fill:#FFFFFF;" d="M109.933,114.2l-17.067,50.347c0,0,0,0.853,0.853,0l87.893-51.2h-71.68V114.2z"/>
	<path style="fill:#0096E6;" d="M93.72,174.787l-8.533-5.12v-6.827l19.627-58.027H214.04L93.72,174.787z M115.907,122.733
		l-8.533,23.893l41.813-23.893H115.907z"/>
	<path style="fill:#FFFFFF;" d="M328.387,114.2l87.893,51.2h0.853l-17.067-51.2H328.387L328.387,114.2z"/>
	<path style="fill:#0096E6;" d="M417.133,174.787l-4.267-2.56l-116.053-66.56H406.04l19.627,58.027v5.973L417.133,174.787z
		 M360.813,122.733l41.813,23.893l-8.533-23.893H360.813z"/>
	<path style="fill:#D0E8F9;" d="M255,71.533l73.387,42.667h58.88c0-51.2-58.88-93.867-132.267-93.867S121.88,63,121.88,114.2h59.733
		L255,71.533L255,71.533z"/>
	<path style="fill:#0096E6;" d="M395.8,122.733h-69.12L255,81.773l-71.68,40.96h-70.827V114.2c0-56.32,64-102.4,141.653-102.4
		s140.8,46.08,140.8,102.4v8.533H395.8z M330.947,105.667h46.933C371.907,63,319,28.867,255,28.867
		c-63.147,0-117.76,34.133-123.733,76.8h47.787L255,61.293L330.947,105.667z"/>
	<polygon style="fill:#FFFFFF;" points="7.533,455.533 502.467,455.533 502.467,489.667 7.533,489.667 	"/>
	<path style="fill:#0096E6;" d="M511,498.2H-1V447h512V498.2z M16.067,481.133h477.867v-17.067H16.067V481.133z"/>
	<polygon style="fill:#FFFFFF;" points="16.067,421.4 493.933,421.4 493.933,455.533 16.067,455.533 	"/>
	<path style="fill:#0096E6;" d="M502.467,464.067H7.533v-51.2h494.933V464.067z M24.6,447h460.8v-17.067H24.6V447z"/>
	<path style="fill:#D0E8F9;" d="M101.4,225.133v-25.6H33.133v25.6c0,5.12,3.413,8.533,8.533,8.533S50.2,237.08,50.2,242.2v136.533
		c0,5.12-3.413,8.533-8.533,8.533s-8.533,3.413-8.533,8.533v25.6H101.4v-25.6c0-5.12-3.413-8.533-8.533-8.533
		s-8.533-3.413-8.533-8.533V242.2c0-5.12,3.413-8.533,8.533-8.533S101.4,230.253,101.4,225.133L101.4,225.133z"/>
	<path style="fill:#0096E6;" d="M109.933,429.933H24.6V395.8c0-9.387,7.68-17.067,17.067-17.067V242.2
		c-9.387,0-17.067-7.68-17.067-17.067V191h85.333v34.133c0,9.387-7.68,17.067-17.067,17.067v136.533
		c9.387,0,17.067,7.68,17.067,17.067V429.933z M41.667,412.867h51.2V395.8c-9.387,0-17.067-7.68-17.067-17.067V242.2
		c0-9.387,7.68-17.067,17.067-17.067v-17.067h-51.2v17.067c9.387,0,17.067,7.68,17.067,17.067v136.533
		c0,9.387-7.68,17.067-17.067,17.067V412.867z"/>
	<path style="fill:#D0E8F9;" d="M195.267,225.133v-25.6H127v25.6c0,5.12,3.413,8.533,8.533,8.533s8.533,3.413,8.533,8.533v136.533
		c0,5.12-3.413,8.533-8.533,8.533S127,390.68,127,395.8v25.6h68.267v-25.6c0-5.12-3.413-8.533-8.533-8.533
		c-5.12,0-8.533-3.413-8.533-8.533V242.2c0-5.12,3.413-8.533,8.533-8.533C191.853,233.667,195.267,230.253,195.267,225.133
		L195.267,225.133z"/>
	<path style="fill:#0096E6;" d="M203.8,429.933h-85.333V395.8c0-9.387,7.68-17.067,17.067-17.067V242.2
		c-9.387,0-17.067-7.68-17.067-17.067V191H203.8v34.133c0,9.387-7.68,17.067-17.067,17.067v136.533
		c9.387,0,17.067,7.68,17.067,17.067V429.933z M135.533,412.867h51.2V395.8c-9.387,0-17.067-7.68-17.067-17.067V242.2
		c0-9.387,7.68-17.067,17.067-17.067v-17.067h-51.2v17.067c9.387,0,17.067,7.68,17.067,17.067v136.533
		c0,9.387-7.68,17.067-17.067,17.067V412.867z"/>
	<path style="fill:#D0E8F9;" d="M289.133,225.133v-25.6h-68.267v25.6c0,5.12,3.413,8.533,8.533,8.533
		c5.12,0,8.533,3.413,8.533,8.533v136.533c0,5.12-3.413,8.533-8.533,8.533c-5.12,0-8.533,3.413-8.533,8.533v25.6h68.267v-25.6
		c0-5.12-3.413-8.533-8.533-8.533s-8.533-3.413-8.533-8.533V242.2c0-5.12,3.413-8.533,8.533-8.533S289.133,230.253,289.133,225.133
		L289.133,225.133z"/>
	<path style="fill:#0096E6;" d="M297.667,429.933h-85.333V395.8c0-9.387,7.68-17.067,17.067-17.067V242.2
		c-9.387,0-17.067-7.68-17.067-17.067V191h85.333v34.133c0,9.387-7.68,17.067-17.067,17.067v136.533
		c9.387,0,17.067,7.68,17.067,17.067V429.933z M229.4,412.867h51.2V395.8c-9.387,0-17.067-7.68-17.067-17.067V242.2
		c0-9.387,7.68-17.067,17.067-17.067v-17.067h-51.2v17.067c9.387,0,17.067,7.68,17.067,17.067v136.533
		c0,9.387-7.68,17.067-17.067,17.067V412.867z"/>
	<path style="fill:#D0E8F9;" d="M383,225.133v-25.6h-68.267v25.6c0,5.12,3.413,8.533,8.533,8.533c5.12,0,8.533,3.413,8.533,8.533
		v136.533c0,5.12-3.413,8.533-8.533,8.533c-5.12,0-8.533,3.413-8.533,8.533v25.6H383v-25.6c0-5.12-3.413-8.533-8.533-8.533
		c-5.12,0-8.533-3.413-8.533-8.533V242.2c0-5.12,3.413-8.533,8.533-8.533C379.587,233.667,383,230.253,383,225.133L383,225.133z"/>
	<path style="fill:#0096E6;" d="M391.533,429.933H306.2V395.8c0-9.387,7.68-17.067,17.067-17.067V242.2
		c-9.387,0-17.067-7.68-17.067-17.067V191h85.333v34.133c0,9.387-7.68,17.067-17.067,17.067v136.533
		c9.387,0,17.067,7.68,17.067,17.067V429.933z M323.267,412.867h51.2V395.8c-9.387,0-17.067-7.68-17.067-17.067V242.2
		c0-9.387,7.68-17.067,17.067-17.067v-17.067h-51.2v17.067c9.387,0,17.067,7.68,17.067,17.067v136.533
		c0,9.387-7.68,17.067-17.067,17.067V412.867z"/>
	<path style="fill:#D0E8F9;" d="M476.867,225.133v-25.6H408.6v25.6c0,5.12,3.413,8.533,8.533,8.533s8.533,3.413,8.533,8.533v136.533
		c0,5.12-3.413,8.533-8.533,8.533s-8.533,3.413-8.533,8.533v25.6h68.267v-25.6c0-5.12-3.413-8.533-8.533-8.533
		c-5.12,0-8.533-3.413-8.533-8.533V242.2c0-5.12,3.413-8.533,8.533-8.533C473.453,233.667,476.867,230.253,476.867,225.133
		L476.867,225.133z"/>
	<path style="fill:#0096E6;" d="M485.4,429.933h-85.333V395.8c0-9.387,7.68-17.067,17.067-17.067V242.2
		c-9.387,0-17.067-7.68-17.067-17.067V191H485.4v34.133c0,9.387-7.68,17.067-17.067,17.067v136.533
		c9.387,0,17.067,7.68,17.067,17.067V429.933z M417.133,412.867h51.2V395.8c-9.387,0-17.067-7.68-17.067-17.067V242.2
		c0-9.387,7.68-17.067,17.067-17.067v-17.067h-51.2v17.067c9.387,0,17.067,7.68,17.067,17.067v136.533
		c0,9.387-7.68,17.067-17.067,17.067V412.867z"/>
</g>
</svg>